<svg width="439" height="133" viewBox="0 0 439 133" fill="none" xmlns="http://www.w3.org/2000/svg">
<g filter="url(#filter0_d_59_200)">
<rect x="12" y="8" width="125.642" height="109" rx="16" fill="white"/>
</g>
<path d="M29.7841 76.6726H31.3651V82.3743C31.3651 82.9993 31.2173 83.5491 30.9219 84.0235C30.6293 84.4979 30.2173 84.8687 29.6861 85.1357C29.1548 85.3999 28.5341 85.532 27.8239 85.532C27.1108 85.532 26.4886 85.3999 25.9574 85.1357C25.4261 84.8687 25.0142 84.4979 24.7216 84.0235C24.429 83.5491 24.2827 82.9993 24.2827 82.3743V76.6726H25.8636V82.2422C25.8636 82.6059 25.9432 82.9297 26.1023 83.2138C26.2642 83.4979 26.4915 83.7209 26.7841 83.8829C27.0767 84.0419 27.4233 84.1215 27.8239 84.1215C28.2244 84.1215 28.571 84.0419 28.8636 83.8829C29.1591 83.7209 29.3864 83.4979 29.5455 83.2138C29.7045 82.9297 29.7841 82.6059 29.7841 82.2422V76.6726ZM37.8263 79.0718C37.7866 78.6996 37.619 78.4098 37.3235 78.2025C37.0309 77.9951 36.6502 77.8914 36.1815 77.8914C35.8519 77.8914 35.5692 77.9411 35.3335 78.0405C35.0977 78.14 34.9173 78.2749 34.7923 78.4454C34.6673 78.6158 34.6033 78.8104 34.6005 79.0292C34.6005 79.211 34.6417 79.3687 34.7241 79.5022C34.8093 79.6357 34.9244 79.7493 35.0692 79.8431C35.2141 79.934 35.3746 80.0107 35.5508 80.0732C35.7269 80.1357 35.9045 80.1883 36.0835 80.2309L36.9016 80.4354C37.2312 80.5121 37.5479 80.6158 37.8519 80.7465C38.1587 80.8772 38.4329 81.0419 38.6744 81.2408C38.9187 81.4397 39.1119 81.6797 39.2539 81.961C39.396 82.2422 39.467 82.5718 39.467 82.9496C39.467 83.461 39.3363 83.9113 39.0749 84.3005C38.8136 84.6868 38.4357 84.9894 37.9414 85.2081C37.4499 85.4241 36.8548 85.532 36.1559 85.532C35.4769 85.532 34.8874 85.4269 34.3874 85.2167C33.8903 85.0064 33.5011 84.6996 33.2198 84.2962C32.9414 83.8928 32.7908 83.4013 32.7681 82.8218H34.3235C34.3462 83.1258 34.44 83.3786 34.6048 83.5803C34.7695 83.782 34.984 83.9326 35.2482 84.032C35.5153 84.1314 35.8136 84.1812 36.1431 84.1812C36.4869 84.1812 36.788 84.13 37.0465 84.0277C37.3079 83.9226 37.5124 83.7777 37.6602 83.5931C37.8079 83.4056 37.8832 83.1868 37.886 82.9368C37.8832 82.7096 37.8164 82.5221 37.6857 82.3743C37.555 82.2238 37.3718 82.0988 37.136 81.9993C36.9031 81.8971 36.6303 81.8062 36.3178 81.7266L35.3249 81.4709C34.6062 81.2863 34.038 81.0064 33.6204 80.6314C33.2056 80.2536 32.9982 79.7522 32.9982 79.1272C32.9982 78.613 33.1374 78.1627 33.4158 77.7763C33.6971 77.39 34.0792 77.0902 34.5621 76.8772C35.0451 76.6613 35.592 76.5533 36.2028 76.5533C36.8221 76.5533 37.3647 76.6613 37.8306 76.8772C38.2994 77.0902 38.6673 77.3871 38.9343 77.7678C39.2013 78.1456 39.3391 78.5803 39.3477 79.0718H37.8263ZM43.8338 85.3999H40.8764V76.6726H43.8935C44.7599 76.6726 45.5043 76.8473 46.1264 77.1968C46.7514 77.5434 47.2315 78.0419 47.5668 78.6925C47.902 79.3431 48.0696 80.1215 48.0696 81.0277C48.0696 81.9368 47.9006 82.7181 47.5625 83.3715C47.2273 84.0249 46.7429 84.5263 46.1094 84.8758C45.4787 85.2252 44.7202 85.3999 43.8338 85.3999ZM42.4574 84.032H43.7571C44.3651 84.032 44.8722 83.9212 45.2784 83.6996C45.6847 83.4752 45.9901 83.1414 46.1946 82.6982C46.3991 82.2522 46.5014 81.6954 46.5014 81.0277C46.5014 80.3601 46.3991 79.8062 46.1946 79.3658C45.9901 78.9226 45.6875 78.5917 45.2869 78.3729C44.8892 78.1513 44.3949 78.0405 43.804 78.0405H42.4574V84.032ZM48.8015 77.9979V76.6726H55.7646V77.9979H53.0671V85.3999H51.4989V77.9979H48.8015Z" fill="#242132"/>
<path d="M27.5724 94.6814V103.409H26.2514V96.0024H26.2003L24.1122 97.3661V96.1047L26.2898 94.6814H27.5724ZM29.75 101.704V100.639L33.5213 94.6814H34.3608V96.2496H33.8281L31.1307 100.519V100.588H36.2997V101.704H29.75ZM33.8878 103.409V101.38L33.8963 100.894V94.6814H35.1449V103.409H33.8878ZM40.7337 103.528C40.1229 103.528 39.5831 103.423 39.1143 103.213C38.6484 103.002 38.2834 102.713 38.0192 102.343C37.755 101.974 37.6243 101.554 37.6271 101.082C37.6243 100.713 37.6996 100.373 37.853 100.064C38.0092 99.751 38.2209 99.4911 38.4879 99.2837C38.755 99.0735 39.0533 98.9399 39.3828 98.8831V98.832C38.9482 98.7269 38.6001 98.4939 38.3388 98.1331C38.0774 97.7723 37.9482 97.3576 37.951 96.8888C37.9482 96.4428 38.0661 96.0451 38.3047 95.6956C38.5462 95.3434 38.8771 95.0664 39.2976 94.8647C39.718 94.663 40.1967 94.5621 40.7337 94.5621C41.2649 94.5621 41.7393 94.6644 42.157 94.8689C42.5774 95.0706 42.9084 95.3476 43.1499 95.6999C43.3913 96.0493 43.5135 96.4456 43.5163 96.8888C43.5135 97.3576 43.38 97.7723 43.1158 98.1331C42.8516 98.4939 42.5078 98.7269 42.0845 98.832V98.8831C42.4112 98.9399 42.7053 99.0735 42.9666 99.2837C43.2308 99.4911 43.4411 99.751 43.5973 100.064C43.7564 100.373 43.8374 100.713 43.8402 101.082C43.8374 101.554 43.7038 101.974 43.4396 102.343C43.1754 102.713 42.8089 103.002 42.3402 103.213C41.8743 103.423 41.3388 103.528 40.7337 103.528ZM40.7337 102.45C41.0945 102.45 41.407 102.39 41.6712 102.271C41.9354 102.149 42.1399 101.98 42.2848 101.764C42.4297 101.545 42.5036 101.289 42.5064 100.997C42.5036 100.693 42.424 100.424 42.2678 100.191C42.1143 99.9584 41.9055 99.7752 41.6413 99.6416C41.3771 99.5081 41.0746 99.4414 40.7337 99.4414C40.3899 99.4414 40.0845 99.5081 39.8175 99.6416C39.5504 99.7752 39.3402 99.9584 39.1868 100.191C39.0334 100.424 38.9581 100.693 38.9609 100.997C38.9581 101.289 39.0277 101.545 39.1697 101.764C39.3146 101.98 39.5206 102.149 39.7876 102.271C40.0547 102.39 40.37 102.45 40.7337 102.45ZM40.7337 98.3888C41.0234 98.3888 41.2805 98.3306 41.505 98.2141C41.7294 98.0976 41.9055 97.9357 42.0334 97.7283C42.1641 97.5209 42.2308 97.278 42.2337 96.9996C42.2308 96.7269 42.1655 96.4882 42.0376 96.2837C41.9126 96.0791 41.7379 95.9215 41.5135 95.8107C41.2891 95.697 41.0291 95.6402 40.7337 95.6402C40.4325 95.6402 40.1683 95.697 39.9411 95.8107C39.7166 95.9215 39.5419 96.0791 39.4169 96.2837C39.2919 96.4882 39.2308 96.7269 39.2337 96.9996C39.2308 97.278 39.2933 97.5209 39.4212 97.7283C39.549 97.9357 39.7251 98.0976 39.9496 98.2141C40.1768 98.3306 40.4382 98.3888 40.7337 98.3888ZM45.9656 103.49C45.7326 103.49 45.5323 103.407 45.3647 103.242C45.1971 103.075 45.1133 102.873 45.1133 102.637C45.1133 102.404 45.1971 102.206 45.3647 102.041C45.5323 101.873 45.7326 101.789 45.9656 101.789C46.1985 101.789 46.3988 101.873 46.5664 102.041C46.734 102.206 46.8178 102.404 46.8178 102.637C46.8178 102.794 46.7781 102.937 46.6985 103.068C46.6218 103.196 46.5195 103.298 46.3917 103.375C46.2638 103.451 46.1218 103.49 45.9656 103.49ZM51.2475 103.528C50.7134 103.528 50.2333 103.426 49.8072 103.221C49.3839 103.014 49.0458 102.73 48.793 102.369C48.5401 102.008 48.4052 101.596 48.3881 101.133H49.6665C49.6978 101.508 49.864 101.816 50.1651 102.058C50.4663 102.299 50.8271 102.42 51.2475 102.42C51.5827 102.42 51.8796 102.343 52.1381 102.19C52.3995 102.034 52.604 101.819 52.7518 101.546C52.9023 101.274 52.9776 100.963 52.9776 100.613C52.9776 100.258 52.9009 99.9414 52.7475 99.663C52.5941 99.3845 52.3825 99.1658 52.1126 99.0067C51.8455 98.8476 51.5387 98.7666 51.1921 98.7638C50.9279 98.7638 50.6623 98.8093 50.3952 98.9002C50.1282 98.9911 49.9123 99.1104 49.7475 99.2581L48.5415 99.0791L49.0316 94.6814H53.8299V95.8107H50.1268L49.8498 98.2524H49.9009C50.0714 98.0877 50.2972 97.9499 50.5785 97.8391C50.8626 97.7283 51.1665 97.6729 51.4904 97.6729C52.0217 97.6729 52.4947 97.7993 52.9094 98.0522C53.3271 98.305 53.6552 98.6502 53.8938 99.0877C54.1353 99.5223 54.2546 100.022 54.2518 100.588C54.2546 101.153 54.1268 101.657 53.8683 102.1C53.6126 102.544 53.2575 102.893 52.8029 103.149C52.3512 103.402 51.8327 103.528 51.2475 103.528ZM58.8466 103.554C58.1733 103.551 57.598 103.373 57.1207 103.021C56.6435 102.669 56.2784 102.156 56.0256 101.483C55.7727 100.809 55.6463 99.9982 55.6463 99.0493C55.6463 98.1033 55.7727 97.2951 56.0256 96.6246C56.2813 95.9541 56.6477 95.4428 57.125 95.0905C57.6051 94.7382 58.179 94.5621 58.8466 94.5621C59.5142 94.5621 60.0866 94.7397 60.5639 95.0948C61.0412 95.447 61.4063 95.9584 61.6591 96.6289C61.9148 97.2965 62.0426 98.1033 62.0426 99.0493C62.0426 100.001 61.9162 100.814 61.6634 101.487C61.4105 102.157 61.0455 102.67 60.5682 103.025C60.0909 103.377 59.517 103.554 58.8466 103.554ZM58.8466 102.416C59.4375 102.416 59.8991 102.127 60.2315 101.551C60.5668 100.974 60.7344 100.14 60.7344 99.0493C60.7344 98.3249 60.6577 97.7127 60.5043 97.2127C60.3537 96.7098 60.1364 96.3291 59.8523 96.0706C59.571 95.8093 59.2358 95.6786 58.8466 95.6786C58.2585 95.6786 57.7969 95.9683 57.4616 96.5479C57.1264 97.1274 56.9574 97.9612 56.9545 99.0493C56.9545 99.7766 57.0298 100.392 57.1804 100.894C57.3338 101.394 57.5511 101.774 57.8324 102.032C58.1136 102.288 58.4517 102.416 58.8466 102.416ZM64.7433 101.189L64.7347 99.6331H64.9563L67.5643 96.8632H69.0898L66.1154 100.017H65.9151L64.7433 101.189ZM63.5714 103.409V94.6814H64.8455V103.409H63.5714ZM67.7049 103.409L65.3612 100.298L66.239 99.4073L69.2688 103.409H67.7049Z" fill="#888888"/>
<rect x="23.4219" y="19.374" width="38.0734" height="37.913" rx="8" fill="#50AF95"/>
<path fill-rule="evenodd" clip-rule="evenodd" d="M43.8227 39.4094C43.7199 39.4169 43.189 39.4475 42.0047 39.4475C41.0627 39.4475 40.3939 39.4202 40.1593 39.4094C36.519 39.2545 33.8019 38.6416 33.8019 37.9077C33.8019 37.1738 36.519 36.5617 40.1593 36.4043V38.7989C40.3974 38.8155 41.079 38.8544 42.021 38.8544C43.1513 38.8544 43.7174 38.8089 43.8193 38.7998V36.406C47.4518 36.5625 50.163 37.1755 50.163 37.9077C50.163 38.6399 47.4527 39.2529 43.8193 39.4086L43.8227 39.4094ZM43.8227 36.1583V34.0155H48.8922V30.7478H35.0898V34.0155H40.1584V36.1575C36.0386 36.3405 32.9404 37.1299 32.9404 38.0758C32.9404 39.0218 36.0386 39.8103 40.1584 39.9942V46.8608H43.8218V39.9917C47.9322 39.8086 51.0253 39.0201 51.0253 38.075C51.0253 37.1299 47.9348 36.3414 43.8218 36.1575L43.8227 36.1583Z" fill="white"/>
<path d="M83.4243 46.6782L83.4243 53.6782" stroke="#BB0000" stroke-width="1.5" stroke-linecap="round" stroke-linejoin="round"/>
<path d="M86.9243 50.1782L83.4243 53.6782L79.9243 50.1782" stroke="#BB0000" stroke-width="1.5" stroke-linecap="round" stroke-linejoin="round"/>
<path d="M97.8366 45.9509V54.6782H96.5156V47.272H96.4644L94.3764 48.6356V47.3742L96.5539 45.9509H97.8366ZM103.236 54.8231C102.562 54.8203 101.987 54.6427 101.51 54.2904C101.033 53.9382 100.668 53.4254 100.415 52.7521C100.162 52.0788 100.035 51.2677 100.035 50.3188C100.035 49.3728 100.162 48.5646 100.415 47.8941C100.67 47.2237 101.037 46.7123 101.514 46.36C101.994 46.0078 102.568 45.8316 103.236 45.8316C103.903 45.8316 104.476 46.0092 104.953 46.3643C105.43 46.7166 105.795 47.2279 106.048 47.8984C106.304 48.566 106.432 49.3728 106.432 50.3188C106.432 51.2706 106.305 52.0831 106.053 52.7563C105.8 53.4268 105.435 53.9396 104.957 54.2947C104.48 54.647 103.906 54.8231 103.236 54.8231ZM103.236 53.6853C103.827 53.6853 104.288 53.397 104.621 52.8203C104.956 52.2436 105.124 51.4098 105.124 50.3188C105.124 49.5944 105.047 48.9822 104.893 48.4822C104.743 47.9794 104.526 47.5987 104.241 47.3402C103.96 47.0788 103.625 46.9481 103.236 46.9481C102.648 46.9481 102.186 47.2379 101.851 47.8174C101.516 48.397 101.347 49.2308 101.344 50.3188C101.344 51.0461 101.419 51.6612 101.57 52.164C101.723 52.664 101.94 53.0433 102.222 53.3018C102.503 53.5575 102.841 53.6853 103.236 53.6853ZM108.484 54.7592C108.251 54.7592 108.05 54.6768 107.883 54.512C107.715 54.3444 107.631 54.1427 107.631 53.9069C107.631 53.674 107.715 53.4751 107.883 53.3103C108.05 53.1427 108.251 53.0589 108.484 53.0589C108.717 53.0589 108.917 53.1427 109.084 53.3103C109.252 53.4751 109.336 53.674 109.336 53.9069C109.336 54.0632 109.296 54.2066 109.217 54.3373C109.14 54.4652 109.038 54.5674 108.91 54.6441C108.782 54.7208 108.64 54.7592 108.484 54.7592ZM113.766 54.7975C113.231 54.7975 112.751 54.6953 112.325 54.4907C111.902 54.2833 111.564 53.9992 111.311 53.6384C111.058 53.2777 110.923 52.8657 110.906 52.4027H112.185C112.216 52.7777 112.382 53.0859 112.683 53.3274C112.984 53.5688 113.345 53.6896 113.766 53.6896C114.101 53.6896 114.398 53.6129 114.656 53.4595C114.918 53.3032 115.122 53.0887 115.27 52.816C115.42 52.5433 115.496 52.2322 115.496 51.8828C115.496 51.5277 115.419 51.2109 115.266 50.9325C115.112 50.6541 114.901 50.4353 114.631 50.2762C114.364 50.1171 114.057 50.0362 113.71 50.0333C113.446 50.0333 113.18 50.0788 112.913 50.1697C112.646 50.2606 112.43 50.3799 112.266 50.5277L111.06 50.3487L111.55 45.9509H116.348V47.0802H112.645L112.368 49.522H112.419C112.589 49.3572 112.815 49.2194 113.097 49.1086C113.381 48.9978 113.685 48.9424 114.008 48.9424C114.54 48.9424 115.013 49.0688 115.428 49.3217C115.845 49.5745 116.173 49.9197 116.412 50.3572C116.653 50.7919 116.773 51.2919 116.77 51.8572C116.773 52.4225 116.645 52.9268 116.386 53.37C116.131 53.8132 115.776 54.1626 115.321 54.4183C114.869 54.6711 114.351 54.7975 113.766 54.7975ZM122.882 53.0419V52.5816C122.882 52.2521 122.95 51.9509 123.086 51.6782C123.225 51.4027 123.427 51.1825 123.691 51.0177C123.958 50.8501 124.281 50.7663 124.659 50.7663C125.045 50.7663 125.369 50.8487 125.63 51.0134C125.892 51.1782 126.089 51.3984 126.223 51.674C126.359 51.9495 126.427 52.2521 126.427 52.5816V53.0419C126.427 53.3714 126.359 53.674 126.223 53.9495C126.086 54.2223 125.886 54.4424 125.622 54.61C125.36 54.7748 125.039 54.8572 124.659 54.8572C124.275 54.8572 123.951 54.7748 123.687 54.61C123.423 54.4424 123.223 54.2223 123.086 53.9495C122.95 53.674 122.882 53.3714 122.882 53.0419ZM123.875 52.5816V53.0419C123.875 53.2862 123.933 53.5078 124.049 53.7066C124.166 53.9055 124.369 54.0049 124.659 54.0049C124.946 54.0049 125.146 53.9055 125.26 53.7066C125.373 53.5078 125.43 53.2862 125.43 53.0419V52.5816C125.43 52.3373 125.375 52.1157 125.264 51.9169C125.156 51.718 124.954 51.6186 124.659 51.6186C124.375 51.6186 124.173 51.718 124.054 51.9169C123.934 52.1157 123.875 52.3373 123.875 52.5816ZM118.492 48.0475V47.5873C118.492 47.2578 118.561 46.9552 118.697 46.6796C118.836 46.4041 119.038 46.1839 119.302 46.0191C119.569 45.8544 119.892 45.772 120.269 45.772C120.656 45.772 120.98 45.8544 121.241 46.0191C121.502 46.1839 121.7 46.4041 121.833 46.6796C121.967 46.9552 122.034 47.2578 122.034 47.5873V48.0475C122.034 48.3771 121.966 48.6796 121.829 48.9552C121.696 49.2279 121.497 49.4481 121.233 49.6157C120.971 49.7805 120.65 49.8629 120.269 49.8629C119.883 49.8629 119.558 49.7805 119.294 49.6157C119.032 49.4481 118.833 49.2279 118.697 48.9552C118.561 48.6796 118.492 48.3771 118.492 48.0475ZM119.49 47.5873V48.0475C119.49 48.2919 119.546 48.5134 119.66 48.7123C119.777 48.9112 119.98 49.0106 120.269 49.0106C120.554 49.0106 120.752 48.9112 120.866 48.7123C120.983 48.5134 121.041 48.2919 121.041 48.0475V47.5873C121.041 47.343 120.985 47.1214 120.875 46.9225C120.764 46.7237 120.562 46.6242 120.269 46.6242C119.985 46.6242 119.784 46.7237 119.664 46.9225C119.548 47.1214 119.49 47.343 119.49 47.5873ZM118.897 54.6782L124.897 45.9509H125.916L119.916 54.6782H118.897Z" fill="#BB0000"/>
<rect x="76.7246" y="18.426" width="49.4954" height="18.9565" fill="white"/>
<g filter="url(#filter1_d_59_200)">
<rect x="156.679" y="8" width="125.642" height="109" rx="16" fill="white"/>
</g>
<path d="M168.961 85.3999V76.6726H172.302C172.933 76.6726 173.457 76.7721 173.875 76.9709C174.295 77.1669 174.609 77.4354 174.816 77.7763C175.027 78.1172 175.132 78.5036 175.132 78.9354C175.132 79.2905 175.064 79.5945 174.927 79.8473C174.791 80.0973 174.608 80.3005 174.378 80.4567C174.147 80.613 173.89 80.7252 173.606 80.7934V80.8786C173.916 80.8956 174.213 80.9908 174.497 81.1641C174.784 81.3346 175.018 81.576 175.2 81.8885C175.382 82.201 175.473 82.5789 175.473 83.0221C175.473 83.4738 175.363 83.88 175.145 84.2408C174.926 84.5988 174.596 84.8814 174.156 85.0888C173.716 85.2962 173.162 85.3999 172.494 85.3999H168.961ZM170.542 84.0789H172.243C172.816 84.0789 173.23 83.9695 173.483 83.7508C173.738 83.5292 173.866 83.2451 173.866 82.8985C173.866 82.64 173.802 82.407 173.674 82.1996C173.547 81.9894 173.365 81.8246 173.129 81.7053C172.893 81.5831 172.612 81.5221 172.285 81.5221H170.542V84.0789ZM170.542 80.3843H172.106C172.379 80.3843 172.625 80.3346 172.843 80.2351C173.062 80.1329 173.234 79.9894 173.359 79.8047C173.487 79.6172 173.551 79.3956 173.551 79.14C173.551 78.8019 173.432 78.5235 173.193 78.3047C172.957 78.086 172.606 77.9766 172.14 77.9766H170.542V80.3843ZM182.35 76.6726H183.93V82.3743C183.93 82.9993 183.783 83.5491 183.487 84.0235C183.195 84.4979 182.783 84.8687 182.252 85.1357C181.72 85.3999 181.1 85.532 180.389 85.532C179.676 85.532 179.054 85.3999 178.523 85.1357C177.992 84.8687 177.58 84.4979 177.287 84.0235C176.994 83.5491 176.848 82.9993 176.848 82.3743V76.6726H178.429V82.2422C178.429 82.6059 178.509 82.9297 178.668 83.2138C178.83 83.4979 179.057 83.7209 179.35 83.8829C179.642 84.0419 179.989 84.1215 180.389 84.1215C180.79 84.1215 181.136 84.0419 181.429 83.8829C181.725 83.7209 181.952 83.4979 182.111 83.2138C182.27 82.9297 182.35 82.6059 182.35 82.2422V76.6726ZM190.392 79.0718C190.352 78.6996 190.184 78.4098 189.889 78.2025C189.596 77.9951 189.216 77.8914 188.747 77.8914C188.417 77.8914 188.135 77.9411 187.899 78.0405C187.663 78.14 187.483 78.2749 187.358 78.4454C187.233 78.6158 187.169 78.8104 187.166 79.0292C187.166 79.211 187.207 79.3687 187.29 79.5022C187.375 79.6357 187.49 79.7493 187.635 79.8431C187.78 79.934 187.94 80.0107 188.116 80.0732C188.292 80.1357 188.47 80.1883 188.649 80.2309L189.467 80.4354C189.797 80.5121 190.113 80.6158 190.417 80.7465C190.724 80.8772 190.998 81.0419 191.24 81.2408C191.484 81.4397 191.677 81.6797 191.819 81.961C191.961 82.2422 192.032 82.5718 192.032 82.9496C192.032 83.461 191.902 83.9113 191.64 84.3005C191.379 84.6868 191.001 84.9894 190.507 85.2081C190.015 85.4241 189.42 85.532 188.721 85.532C188.042 85.532 187.453 85.4269 186.953 85.2167C186.456 85.0064 186.066 84.6996 185.785 84.2962C185.507 83.8928 185.356 83.4013 185.334 82.8218H186.889C186.912 83.1258 187.005 83.3786 187.17 83.5803C187.335 83.782 187.549 83.9326 187.814 84.032C188.081 84.1314 188.379 84.1812 188.709 84.1812C189.052 84.1812 189.353 84.13 189.612 84.0277C189.873 83.9226 190.078 83.7777 190.226 83.5931C190.373 83.4056 190.449 83.1868 190.451 82.9368C190.449 82.7096 190.382 82.5221 190.251 82.3743C190.12 82.2238 189.937 82.0988 189.701 81.9993C189.468 81.8971 189.196 81.8062 188.883 81.7266L187.89 81.4709C187.172 81.2863 186.603 81.0064 186.186 80.6314C185.771 80.2536 185.564 79.7522 185.564 79.1272C185.564 78.613 185.703 78.1627 185.981 77.7763C186.263 77.39 186.645 77.0902 187.128 76.8772C187.611 76.6613 188.157 76.5533 188.768 76.5533C189.388 76.5533 189.93 76.6613 190.396 76.8772C190.865 77.0902 191.233 77.3871 191.5 77.7678C191.767 78.1456 191.905 78.5803 191.913 79.0718H190.392ZM196.399 85.3999H193.442V76.6726H196.459C197.325 76.6726 198.07 76.8473 198.692 77.1968C199.317 77.5434 199.797 78.0419 200.132 78.6925C200.467 79.3431 200.635 80.1215 200.635 81.0277C200.635 81.9368 200.466 82.7181 200.128 83.3715C199.793 84.0249 199.308 84.5263 198.675 84.8758C198.044 85.2252 197.286 85.3999 196.399 85.3999ZM195.023 84.032H196.323C196.93 84.032 197.438 83.9212 197.844 83.6996C198.25 83.4752 198.555 83.1414 198.76 82.6982C198.965 82.2522 199.067 81.6954 199.067 81.0277C199.067 80.3601 198.965 79.8062 198.76 79.3658C198.555 78.9226 198.253 78.5917 197.852 78.3729C197.455 78.1513 196.96 78.0405 196.369 78.0405H195.023V84.032Z" fill="#242132"/>
<path d="M171.987 103.528C171.598 103.522 171.214 103.451 170.836 103.315C170.461 103.179 170.12 102.951 169.814 102.633C169.507 102.315 169.261 101.887 169.076 101.35C168.895 100.814 168.804 100.143 168.804 99.3391C168.804 98.5777 168.879 97.9016 169.03 97.3107C169.183 96.7198 169.403 96.2212 169.69 95.8149C169.977 95.4059 170.324 95.0948 170.73 94.8817C171.136 94.6686 171.592 94.5621 172.098 94.5621C172.618 94.5621 173.079 94.6644 173.483 94.8689C173.886 95.0735 174.213 95.3561 174.463 95.7169C174.716 96.0777 174.876 96.4882 174.944 96.9485H173.645C173.557 96.5848 173.382 96.288 173.12 96.0578C172.859 95.8277 172.518 95.7127 172.098 95.7127C171.459 95.7127 170.96 95.9911 170.602 96.5479C170.247 97.1047 170.068 97.8789 170.065 98.8703H170.129C170.28 98.6232 170.464 98.413 170.683 98.2397C170.905 98.0635 171.152 97.9286 171.424 97.8348C171.7 97.7382 171.99 97.6899 172.294 97.6899C172.799 97.6899 173.257 97.8135 173.666 98.0607C174.078 98.305 174.406 98.6431 174.65 99.0749C174.895 99.5067 175.017 100.001 175.017 100.558C175.017 101.115 174.89 101.619 174.638 102.071C174.388 102.522 174.035 102.88 173.581 103.144C173.126 103.406 172.595 103.534 171.987 103.528ZM171.983 102.42C172.318 102.42 172.618 102.338 172.882 102.173C173.146 102.008 173.355 101.787 173.508 101.508C173.662 101.23 173.738 100.919 173.738 100.575C173.738 100.24 173.663 99.9343 173.513 99.6587C173.365 99.3831 173.16 99.1644 172.899 99.0024C172.64 98.8405 172.345 98.7595 172.013 98.7595C171.76 98.7595 171.525 98.8078 171.309 98.9044C171.096 99.001 170.909 99.1345 170.747 99.305C170.585 99.4755 170.457 99.6715 170.363 99.8931C170.272 100.112 170.227 100.343 170.227 100.588C170.227 100.914 170.302 101.217 170.453 101.495C170.606 101.774 170.815 101.998 171.079 102.169C171.346 102.336 171.647 102.42 171.983 102.42ZM179.518 103.528C178.907 103.528 178.367 103.423 177.899 103.213C177.433 103.002 177.068 102.713 176.803 102.343C176.539 101.974 176.408 101.554 176.411 101.082C176.408 100.713 176.484 100.373 176.637 100.064C176.793 99.751 177.005 99.4911 177.272 99.2837C177.539 99.0735 177.837 98.9399 178.167 98.8831V98.832C177.732 98.7269 177.384 98.4939 177.123 98.1331C176.862 97.7723 176.732 97.3576 176.735 96.8888C176.732 96.4428 176.85 96.0451 177.089 95.6956C177.33 95.3434 177.661 95.0664 178.082 94.8647C178.502 94.663 178.981 94.5621 179.518 94.5621C180.049 94.5621 180.524 94.6644 180.941 94.8689C181.362 95.0706 181.693 95.3476 181.934 95.6999C182.176 96.0493 182.298 96.4456 182.301 96.8888C182.298 97.3576 182.164 97.7723 181.9 98.1331C181.636 98.4939 181.292 98.7269 180.869 98.832V98.8831C181.195 98.9399 181.489 99.0735 181.751 99.2837C182.015 99.4911 182.225 99.751 182.381 100.064C182.541 100.373 182.622 100.713 182.624 101.082C182.622 101.554 182.488 101.974 182.224 102.343C181.96 102.713 181.593 103.002 181.124 103.213C180.658 103.423 180.123 103.528 179.518 103.528ZM179.518 102.45C179.879 102.45 180.191 102.39 180.455 102.271C180.72 102.149 180.924 101.98 181.069 101.764C181.214 101.545 181.288 101.289 181.291 100.997C181.288 100.693 181.208 100.424 181.052 100.191C180.899 99.9584 180.69 99.7752 180.426 99.6416C180.161 99.5081 179.859 99.4414 179.518 99.4414C179.174 99.4414 178.869 99.5081 178.602 99.6416C178.335 99.7752 178.124 99.9584 177.971 100.191C177.818 100.424 177.742 100.693 177.745 100.997C177.742 101.289 177.812 101.545 177.954 101.764C178.099 101.98 178.305 102.149 178.572 102.271C178.839 102.39 179.154 102.45 179.518 102.45ZM179.518 98.3888C179.808 98.3888 180.065 98.3306 180.289 98.2141C180.514 98.0976 180.69 97.9357 180.818 97.7283C180.948 97.5209 181.015 97.278 181.018 96.9996C181.015 96.7269 180.95 96.4882 180.822 96.2837C180.697 96.0791 180.522 95.9215 180.298 95.8107C180.073 95.697 179.813 95.6402 179.518 95.6402C179.217 95.6402 178.953 95.697 178.725 95.8107C178.501 95.9215 178.326 96.0791 178.201 96.2837C178.076 96.4882 178.015 96.7269 178.018 96.9996C178.015 97.278 178.078 97.5209 178.205 97.7283C178.333 97.9357 178.509 98.0976 178.734 98.2141C178.961 98.3306 179.222 98.3888 179.518 98.3888ZM184.75 103.49C184.517 103.49 184.316 103.407 184.149 103.242C183.981 103.075 183.897 102.873 183.897 102.637C183.897 102.404 183.981 102.206 184.149 102.041C184.316 101.873 184.517 101.789 184.75 101.789C184.983 101.789 185.183 101.873 185.351 102.041C185.518 102.206 185.602 102.404 185.602 102.637C185.602 102.794 185.562 102.937 185.483 103.068C185.406 103.196 185.304 103.298 185.176 103.375C185.048 103.451 184.906 103.49 184.75 103.49ZM190.022 103.528C189.633 103.522 189.249 103.451 188.872 103.315C188.497 103.179 188.156 102.951 187.849 102.633C187.542 102.315 187.296 101.887 187.112 101.35C186.93 100.814 186.839 100.143 186.839 99.3391C186.839 98.5777 186.914 97.9016 187.065 97.3107C187.218 96.7198 187.438 96.2212 187.725 95.8149C188.012 95.4059 188.359 95.0948 188.765 94.8817C189.171 94.6686 189.627 94.5621 190.133 94.5621C190.653 94.5621 191.114 94.6644 191.518 94.8689C191.921 95.0735 192.248 95.3561 192.498 95.7169C192.751 96.0777 192.911 96.4882 192.979 96.9485H191.68C191.592 96.5848 191.417 96.288 191.156 96.0578C190.894 95.8277 190.553 95.7127 190.133 95.7127C189.494 95.7127 188.995 95.9911 188.637 96.5479C188.282 97.1047 188.103 97.8789 188.1 98.8703H188.164C188.315 98.6232 188.499 98.413 188.718 98.2397C188.94 98.0635 189.187 97.9286 189.46 97.8348C189.735 97.7382 190.025 97.6899 190.329 97.6899C190.835 97.6899 191.292 97.8135 191.701 98.0607C192.113 98.305 192.441 98.6431 192.685 99.0749C192.93 99.5067 193.052 100.001 193.052 100.558C193.052 101.115 192.926 101.619 192.673 102.071C192.423 102.522 192.07 102.88 191.616 103.144C191.161 103.406 190.63 103.534 190.022 103.528ZM190.018 102.42C190.353 102.42 190.653 102.338 190.917 102.173C191.181 102.008 191.39 101.787 191.543 101.508C191.697 101.23 191.774 100.919 191.774 100.575C191.774 100.24 191.698 99.9343 191.548 99.6587C191.4 99.3831 191.195 99.1644 190.934 99.0024C190.676 98.8405 190.38 98.7595 190.048 98.7595C189.795 98.7595 189.56 98.8078 189.345 98.9044C189.131 99.001 188.944 99.1345 188.782 99.305C188.62 99.4755 188.492 99.6715 188.399 99.8931C188.308 100.112 188.262 100.343 188.262 100.588C188.262 100.914 188.337 101.217 188.488 101.495C188.641 101.774 188.85 101.998 189.114 102.169C189.381 102.336 189.683 102.42 190.018 102.42ZM197.915 94.6814V103.409H196.594V96.0024H196.543L194.455 97.3661V96.1047L196.633 94.6814H197.915ZM201.465 101.189L201.456 99.6331H201.678L204.286 96.8632H205.812L202.837 100.017H202.637L201.465 101.189ZM200.293 103.409V94.6814H201.567V103.409H200.293ZM204.427 103.409L202.083 100.298L202.961 99.4073L205.991 103.409H204.427Z" fill="#888888"/>
<rect x="168.101" y="19.374" width="38.0734" height="37.913" rx="8" fill="#F3BA2F"/>
<path d="M186.661 28.8901L188.892 31.1584L183.274 36.7358L181.043 34.5209L186.661 28.8901Z" fill="white" stroke="white" stroke-width="0.322034"/>
<path d="M190.048 32.2524L192.279 34.5207L183.274 43.4605L181.043 41.2456L190.048 32.2524Z" fill="white" stroke="white" stroke-width="0.322034"/>
<path d="M179.888 35.615L182.119 37.8833L179.888 40.0982L177.657 37.8833L179.888 35.615Z" fill="white" stroke="white" stroke-width="0.322034"/>
<path d="M193.435 35.615L195.666 37.8833L186.661 46.8231L184.43 44.6081L193.435 35.615Z" fill="white" stroke="white" stroke-width="0.322034"/>
<path d="M233.958 53.6782V46.6782" stroke="#00BB29" stroke-width="1.5" stroke-linecap="round" stroke-linejoin="round"/>
<path d="M230.458 50.1782L233.958 46.6782L237.458 50.1782" stroke="#00BB29" stroke-width="1.5" stroke-linecap="round" stroke-linejoin="round"/>
<path d="M247.762 45.8316C248.152 45.8345 248.535 45.9055 248.913 46.0447C249.291 46.1839 249.632 46.4112 249.936 46.7265C250.243 47.0419 250.487 47.468 250.669 48.0049C250.853 48.539 250.947 49.2038 250.95 49.9992C250.95 50.7634 250.873 51.4438 250.72 52.0404C250.566 52.6342 250.346 53.1356 250.059 53.5447C249.775 53.9538 249.43 54.2649 249.024 54.4779C248.618 54.691 248.16 54.7975 247.652 54.7975C247.132 54.7975 246.67 54.6953 246.267 54.4907C245.863 54.2862 245.535 54.0035 245.282 53.6427C245.03 53.2791 244.872 52.8615 244.809 52.3899H246.109C246.194 52.7649 246.368 53.0688 246.629 53.3018C246.893 53.5319 247.234 53.647 247.652 53.647C248.291 53.647 248.789 53.3686 249.147 52.8117C249.505 52.2521 249.686 51.4708 249.689 50.468H249.62C249.473 50.7123 249.288 50.9225 249.066 51.0987C248.848 51.2748 248.602 51.4112 248.329 51.5078C248.057 51.6044 247.765 51.6527 247.456 51.6527C246.953 51.6527 246.495 51.5291 246.083 51.2819C245.672 51.0348 245.343 50.6953 245.099 50.2634C244.855 49.8316 244.733 49.3387 244.733 48.7848C244.733 48.2336 244.858 47.7336 245.108 47.2848C245.36 46.8359 245.713 46.4808 246.164 46.2194C246.619 45.9552 247.152 45.8259 247.762 45.8316ZM247.767 46.9396C247.434 46.9396 247.135 47.022 246.868 47.1867C246.603 47.3487 246.395 47.5688 246.241 47.8473C246.088 48.1228 246.011 48.4296 246.011 48.7677C246.011 49.1058 246.085 49.4126 246.233 49.6882C246.383 49.9609 246.588 50.1782 246.846 50.3402C247.108 50.4992 247.406 50.5788 247.741 50.5788C247.991 50.5788 248.224 50.5305 248.44 50.4339C248.656 50.3373 248.845 50.2038 249.007 50.0333C249.169 49.86 249.295 49.664 249.386 49.4453C249.477 49.2265 249.522 48.9964 249.522 48.7549C249.522 48.4339 249.446 48.1356 249.292 47.86C249.142 47.5845 248.934 47.3629 248.67 47.1953C248.406 47.0248 248.105 46.9396 247.767 46.9396ZM253.03 54.7592C252.797 54.7592 252.596 54.6768 252.429 54.512C252.261 54.3444 252.177 54.1427 252.177 53.9069C252.177 53.674 252.261 53.4751 252.429 53.3103C252.596 53.1427 252.797 53.0589 253.03 53.0589C253.262 53.0589 253.463 53.1427 253.63 53.3103C253.798 53.4751 253.882 53.674 253.882 53.9069C253.882 54.0632 253.842 54.2066 253.762 54.3373C253.686 54.4652 253.583 54.5674 253.456 54.6441C253.328 54.7208 253.186 54.7592 253.03 54.7592ZM258.227 54.7975C257.617 54.7975 257.077 54.6924 256.608 54.4822C256.142 54.272 255.777 53.9822 255.513 53.6129C255.249 53.2436 255.118 52.8231 255.121 52.3515C255.118 51.9822 255.193 51.6427 255.347 51.3331C255.503 51.0206 255.715 50.7606 255.982 50.5532C256.249 50.343 256.547 50.2095 256.876 50.1527V50.1015C256.442 49.9964 256.094 49.7634 255.832 49.4027C255.571 49.0419 255.442 48.6271 255.445 48.1583C255.442 47.7123 255.56 47.3146 255.798 46.9652C256.04 46.6129 256.371 46.3359 256.791 46.1342C257.212 45.9325 257.69 45.8316 258.227 45.8316C258.759 45.8316 259.233 45.9339 259.651 46.1384C260.071 46.3402 260.402 46.6171 260.644 46.9694C260.885 47.3188 261.007 47.7152 261.01 48.1583C261.007 48.6271 260.874 49.0419 260.609 49.4027C260.345 49.7634 260.001 49.9964 259.578 50.1015V50.1527C259.905 50.2095 260.199 50.343 260.46 50.5532C260.724 50.7606 260.935 51.0206 261.091 51.3331C261.25 51.6427 261.331 51.9822 261.334 52.3515C261.331 52.8231 261.197 53.2436 260.933 53.6129C260.669 53.9822 260.303 54.272 259.834 54.4822C259.368 54.6924 258.832 54.7975 258.227 54.7975ZM258.227 53.7194C258.588 53.7194 258.901 53.6598 259.165 53.5404C259.429 53.4183 259.634 53.2492 259.778 53.0333C259.923 52.8146 259.997 52.5589 260 52.2663C259.997 51.9623 259.918 51.6938 259.761 51.4609C259.608 51.2279 259.399 51.0447 259.135 50.9112C258.871 50.7777 258.568 50.7109 258.227 50.7109C257.884 50.7109 257.578 50.7777 257.311 50.9112C257.044 51.0447 256.834 51.2279 256.68 51.4609C256.527 51.6938 256.452 51.9623 256.455 52.2663C256.452 52.5589 256.521 52.8146 256.663 53.0333C256.808 53.2492 257.014 53.4183 257.281 53.5404C257.548 53.6598 257.864 53.7194 258.227 53.7194ZM258.227 49.6583C258.517 49.6583 258.774 49.6001 258.999 49.4836C259.223 49.3671 259.399 49.2052 259.527 48.9978C259.658 48.7904 259.724 48.5475 259.727 48.2691C259.724 47.9964 259.659 47.7578 259.531 47.5532C259.406 47.3487 259.232 47.191 259.007 47.0802C258.783 46.9666 258.523 46.9098 258.227 46.9098C257.926 46.9098 257.662 46.9666 257.435 47.0802C257.21 47.191 257.036 47.3487 256.911 47.5532C256.786 47.7578 256.724 47.9964 256.727 48.2691C256.724 48.5475 256.787 48.7904 256.915 48.9978C257.043 49.2052 257.219 49.3671 257.443 49.4836C257.67 49.6001 257.932 49.6583 258.227 49.6583ZM267.416 53.0419V52.5816C267.416 52.2521 267.484 51.9509 267.62 51.6782C267.76 51.4027 267.961 51.1825 268.226 51.0177C268.493 50.8501 268.815 50.7663 269.193 50.7663C269.579 50.7663 269.903 50.8487 270.164 51.0134C270.426 51.1782 270.623 51.3984 270.757 51.674C270.893 51.9495 270.961 52.2521 270.961 52.5816V53.0419C270.961 53.3714 270.893 53.674 270.757 53.9495C270.62 54.2223 270.42 54.4424 270.156 54.61C269.895 54.7748 269.574 54.8572 269.193 54.8572C268.809 54.8572 268.485 54.7748 268.221 54.61C267.957 54.4424 267.757 54.2223 267.62 53.9495C267.484 53.674 267.416 53.3714 267.416 53.0419ZM268.409 52.5816V53.0419C268.409 53.2862 268.467 53.5078 268.583 53.7066C268.7 53.9055 268.903 54.0049 269.193 54.0049C269.48 54.0049 269.68 53.9055 269.794 53.7066C269.907 53.5078 269.964 53.2862 269.964 53.0419V52.5816C269.964 52.3373 269.909 52.1157 269.798 51.9169C269.69 51.718 269.488 51.6186 269.193 51.6186C268.909 51.6186 268.707 51.718 268.588 51.9169C268.468 52.1157 268.409 52.3373 268.409 52.5816ZM263.027 48.0475V47.5873C263.027 47.2578 263.095 46.9552 263.231 46.6796C263.37 46.4041 263.572 46.1839 263.836 46.0191C264.103 45.8544 264.426 45.772 264.804 45.772C265.19 45.772 265.514 45.8544 265.775 46.0191C266.037 46.1839 266.234 46.4041 266.368 46.6796C266.501 46.9552 266.568 47.2578 266.568 47.5873V48.0475C266.568 48.3771 266.5 48.6796 266.363 48.9552C266.23 49.2279 266.031 49.4481 265.767 49.6157C265.505 49.7805 265.184 49.8629 264.804 49.8629C264.417 49.8629 264.092 49.7805 263.828 49.6157C263.566 49.4481 263.368 49.2279 263.231 48.9552C263.095 48.6796 263.027 48.3771 263.027 48.0475ZM264.024 47.5873V48.0475C264.024 48.2919 264.081 48.5134 264.194 48.7123C264.311 48.9112 264.514 49.0106 264.804 49.0106C265.088 49.0106 265.287 48.9112 265.4 48.7123C265.517 48.5134 265.575 48.2919 265.575 48.0475V47.5873C265.575 47.343 265.52 47.1214 265.409 46.9225C265.298 46.7237 265.096 46.6242 264.804 46.6242C264.52 46.6242 264.318 46.7237 264.199 46.9225C264.082 47.1214 264.024 47.343 264.024 47.5873ZM263.432 54.6782L269.432 45.9509H270.45L264.45 54.6782H263.432Z" fill="#00BB29"/>
<rect x="221.403" y="18.426" width="49.4954" height="18.9565" fill="white"/>
<g filter="url(#filter2_d_59_200)">
<rect x="301.358" y="8" width="125.642" height="109" rx="16" fill="white"/>
</g>
<path d="M321.111 79.6172H319.517C319.472 79.3559 319.388 79.1243 319.266 78.9226C319.143 78.7181 318.991 78.5448 318.81 78.4027C318.628 78.2607 318.42 78.1542 318.187 78.0831C317.957 78.0093 317.709 77.9723 317.442 77.9723C316.967 77.9723 316.547 78.0917 316.18 78.3303C315.814 78.5661 315.527 78.9127 315.32 79.3701C315.112 79.8246 315.008 80.38 315.008 81.0363C315.008 81.7039 315.112 82.2664 315.32 82.7238C315.53 83.1783 315.817 83.5221 316.18 83.755C316.547 83.9851 316.966 84.1002 317.437 84.1002C317.699 84.1002 317.943 84.0661 318.17 83.9979C318.401 83.9269 318.606 83.8232 318.788 83.6868C318.973 83.5505 319.128 83.3829 319.253 83.184C319.381 82.9851 319.469 82.7579 319.517 82.5022L321.111 82.5107C321.051 82.9255 320.922 83.3147 320.723 83.6783C320.527 84.0419 320.27 84.363 319.952 84.6414C319.633 84.9169 319.261 85.1329 318.835 85.2891C318.409 85.4425 317.936 85.5192 317.416 85.5192C316.649 85.5192 315.964 85.3417 315.362 84.9866C314.76 84.6314 314.285 84.1187 313.939 83.4482C313.592 82.7777 313.419 81.9738 313.419 81.0363C313.419 80.0959 313.594 79.2919 313.943 78.6243C314.293 77.9539 314.768 77.4411 315.371 77.086C315.973 76.7309 316.655 76.5533 317.416 76.5533C317.902 76.5533 318.354 76.6215 318.771 76.7579C319.189 76.8942 319.561 77.0945 319.888 77.3587C320.214 77.6201 320.483 77.9411 320.693 78.3218C320.906 78.6996 321.045 79.1314 321.111 79.6172ZM323.574 85.3999H321.886L324.959 76.6726H326.91L329.987 85.3999H328.3L325.969 78.4624H325.901L323.574 85.3999ZM323.629 81.978H328.231V83.2479H323.629V81.978ZM331.137 85.3999V76.6726H332.718V80.6826H332.824L336.229 76.6726H338.159L334.784 80.5888L338.189 85.3999H336.289L333.685 81.6584L332.718 82.8005V85.3999H331.137ZM339.258 85.3999V76.6726H344.934V77.9979H340.839V80.3672H344.64V81.6925H340.839V84.0746H344.968V85.3999H339.258Z" fill="#242132"/>
<path d="M316.93 94.6814V103.409H315.609V96.0024H315.558L313.47 97.3661V96.1047L315.648 94.6814H316.93ZM322.193 94.5621C322.582 94.5649 322.966 94.636 323.344 94.7752C323.722 94.9144 324.062 95.1416 324.366 95.457C324.673 95.7723 324.918 96.1985 325.099 96.7354C325.284 97.2695 325.378 97.9343 325.381 98.7297C325.381 99.4939 325.304 100.174 325.151 100.771C324.997 101.365 324.777 101.866 324.49 102.275C324.206 102.684 323.861 102.995 323.455 103.208C323.048 103.421 322.591 103.528 322.082 103.528C321.562 103.528 321.101 103.426 320.697 103.221C320.294 103.017 319.966 102.734 319.713 102.373C319.46 102.01 319.303 101.592 319.24 101.12H320.54C320.625 101.495 320.798 101.799 321.06 102.032C321.324 102.262 321.665 102.377 322.082 102.377C322.722 102.377 323.22 102.099 323.578 101.542C323.936 100.983 324.116 100.201 324.119 99.1985H324.051C323.903 99.4428 323.719 99.653 323.497 99.8291C323.278 100.005 323.033 100.142 322.76 100.238C322.487 100.335 322.196 100.383 321.886 100.383C321.383 100.383 320.926 100.26 320.514 100.012C320.102 99.7652 319.774 99.4257 319.53 98.9939C319.285 98.5621 319.163 98.0692 319.163 97.5152C319.163 96.9641 319.288 96.4641 319.538 96.0152C319.791 95.5664 320.143 95.2112 320.595 94.9499C321.05 94.6857 321.582 94.5564 322.193 94.5621ZM322.197 95.6701C321.865 95.6701 321.565 95.7524 321.298 95.9172C321.034 96.0791 320.825 96.2993 320.672 96.5777C320.518 96.8533 320.442 97.1601 320.442 97.4982C320.442 97.8362 320.516 98.1431 320.663 98.4186C320.814 98.6914 321.018 98.9087 321.277 99.0706C321.538 99.2297 321.837 99.3093 322.172 99.3093C322.422 99.3093 322.655 99.261 322.871 99.1644C323.087 99.0678 323.276 98.9343 323.437 98.7638C323.599 98.5905 323.726 98.3945 323.817 98.1757C323.908 97.957 323.953 97.7269 323.953 97.4854C323.953 97.1644 323.876 96.8661 323.723 96.5905C323.572 96.3149 323.365 96.0934 323.101 95.9257C322.837 95.7553 322.535 95.6701 322.197 95.6701ZM327.46 103.49C327.227 103.49 327.027 103.407 326.859 103.242C326.692 103.075 326.608 102.873 326.608 102.637C326.608 102.404 326.692 102.206 326.859 102.041C327.027 101.873 327.227 101.789 327.46 101.789C327.693 101.789 327.893 101.873 328.061 102.041C328.229 102.206 328.312 102.404 328.312 102.637C328.312 102.794 328.273 102.937 328.193 103.068C328.116 103.196 328.014 103.298 327.886 103.375C327.758 103.451 327.616 103.49 327.46 103.49ZM332.724 103.528C332.139 103.528 331.616 103.427 331.156 103.225C330.698 103.024 330.336 102.744 330.069 102.386C329.805 102.025 329.663 101.608 329.643 101.133H330.981C330.998 101.392 331.085 101.616 331.241 101.806C331.4 101.994 331.608 102.139 331.863 102.241C332.119 102.343 332.403 102.394 332.716 102.394C333.059 102.394 333.363 102.335 333.627 102.216C333.894 102.096 334.103 101.93 334.254 101.717C334.404 101.501 334.48 101.252 334.48 100.971C334.48 100.679 334.404 100.421 334.254 100.2C334.106 99.9755 333.889 99.7993 333.602 99.6715C333.318 99.5436 332.974 99.4797 332.571 99.4797H331.833V98.4059H332.571C332.894 98.4059 333.179 98.3476 333.423 98.2311C333.67 98.1147 333.863 97.9527 334.002 97.7453C334.142 97.5351 334.211 97.2894 334.211 97.0081C334.211 96.7382 334.15 96.5039 334.028 96.305C333.909 96.1033 333.738 95.9456 333.517 95.832C333.298 95.7184 333.039 95.6615 332.741 95.6615C332.457 95.6615 332.191 95.7141 331.944 95.8192C331.7 95.9215 331.501 96.0692 331.348 96.2624C331.194 96.4527 331.112 96.6814 331.1 96.9485H329.826C329.841 96.4769 329.98 96.0621 330.244 95.7041C330.511 95.3462 330.863 95.0664 331.301 94.8647C331.738 94.663 332.224 94.5621 332.758 94.5621C333.318 94.5621 333.801 94.6715 334.207 94.8902C334.616 95.1061 334.931 95.3945 335.153 95.7553C335.377 96.1161 335.488 96.511 335.485 96.9399C335.488 97.4286 335.352 97.8434 335.076 98.1843C334.804 98.5252 334.44 98.7539 333.985 98.8703V98.9385C334.565 99.0266 335.014 99.2567 335.332 99.6289C335.653 100.001 335.812 100.463 335.809 101.014C335.812 101.494 335.679 101.924 335.409 102.305C335.142 102.686 334.777 102.985 334.314 103.204C333.85 103.42 333.321 103.528 332.724 103.528ZM340.458 103.554C339.785 103.551 339.21 103.373 338.733 103.021C338.255 102.669 337.89 102.156 337.637 101.483C337.385 100.809 337.258 99.9982 337.258 99.0493C337.258 98.1033 337.385 97.2951 337.637 96.6246C337.893 95.9541 338.26 95.4428 338.737 95.0905C339.217 94.7382 339.791 94.5621 340.458 94.5621C341.126 94.5621 341.698 94.7397 342.176 95.0948C342.653 95.447 343.018 95.9584 343.271 96.6289C343.527 97.2965 343.654 98.1033 343.654 99.0493C343.654 100.001 343.528 100.814 343.275 101.487C343.022 102.157 342.657 102.67 342.18 103.025C341.703 103.377 341.129 103.554 340.458 103.554ZM340.458 102.416C341.049 102.416 341.511 102.127 341.843 101.551C342.179 100.974 342.346 100.14 342.346 99.0493C342.346 98.3249 342.269 97.7127 342.116 97.2127C341.966 96.7098 341.748 96.3291 341.464 96.0706C341.183 95.8093 340.848 95.6786 340.458 95.6786C339.87 95.6786 339.409 95.9683 339.073 96.5479C338.738 97.1274 338.569 97.9612 338.566 99.0493C338.566 99.7766 338.642 100.392 338.792 100.894C338.946 101.394 339.163 101.774 339.444 102.032C339.725 102.288 340.064 102.416 340.458 102.416ZM346.355 101.189L346.347 99.6331H346.568L349.176 96.8632H350.702L347.727 100.017H347.527L346.355 101.189ZM345.183 103.409V94.6814H346.457V103.409H345.183ZM349.317 103.409L346.973 100.298L347.851 99.4073L350.881 103.409H349.317Z" fill="#888888"/>
<rect x="313.28" y="19.874" width="37.0734" height="36.913" rx="7.5" fill="white" stroke="#F3F3F3"/>
<path d="M338.505 31.1714L338.505 31.1714L338.505 31.1702C338.774 29.446 337.43 27.8543 335.681 27.8543C334.135 27.8543 332.857 29.1141 332.857 30.6411V33.9711C332.482 33.9145 332.161 33.9145 331.785 33.9145H331.784C331.584 33.9145 331.384 33.9309 331.186 33.9471L331.185 33.9472C331.004 33.9621 330.824 33.9769 330.645 33.9793V30.6411C330.645 29.1141 329.367 27.8543 327.82 27.8543C326.072 27.8543 324.727 29.446 325.063 31.1717C325.063 31.1718 325.063 31.1719 325.063 31.172L325.782 35.1073C323.216 36.2213 321.297 38.1823 321.297 40.6111V42.1098C321.297 44.1536 322.633 45.8615 324.491 46.9746C326.416 48.1532 328.936 48.8065 331.784 48.8065C334.631 48.8065 337.151 48.1533 339.076 46.9748C341 45.8617 342.337 44.1537 342.337 42.1098V40.6111C342.337 38.1817 340.351 36.2209 337.785 35.1073L338.505 31.1714ZM336.689 35.6497L336.681 35.6911L336.721 35.7056C339.555 36.746 341.377 38.5577 341.312 40.6747L341.312 40.6747V40.6763V42.175C341.312 43.7472 340.255 45.1835 338.529 46.2294C336.804 47.2747 334.419 47.9245 331.784 47.9245C329.149 47.9245 326.764 47.2747 325.039 46.2294C323.313 45.1835 322.255 43.7472 322.255 42.175V40.6763C322.255 38.6231 324.079 36.8109 326.847 35.7707L326.886 35.756L326.879 35.7149L326.02 31.0231L326.02 31.0231L326.02 31.0211C325.763 29.8807 326.662 28.8014 327.82 28.8014C328.85 28.8014 329.686 29.6268 329.686 30.6411V34.8767V34.9267H329.736C329.871 34.9267 330.022 34.9102 330.169 34.8941L330.171 34.8939C330.32 34.8775 330.466 34.8616 330.595 34.8616V34.8623L330.603 34.8609C330.995 34.7965 331.387 34.7964 331.784 34.7964C331.979 34.7964 332.159 34.8125 332.341 34.8288L332.342 34.8289C332.523 34.8451 332.706 34.8616 332.907 34.8616C333.173 34.8616 333.496 34.8619 333.754 34.9253L333.816 34.9406V34.8767V30.576C333.816 29.5616 334.651 28.7363 335.681 28.7363C336.904 28.7363 337.741 29.8144 337.548 30.9583C337.548 30.9584 337.548 30.9585 337.548 30.9586L336.689 35.6497Z" fill="#633001" stroke="#633001" stroke-width="0.1"/>
<path d="M341.428 42.1098C341.428 45.3028 337.134 47.9093 331.85 47.9093C326.565 47.9093 322.271 45.3028 322.271 42.1098V40.6111H341.43V42.1098H341.428Z" fill="#FEDC90"/>
<path fill-rule="evenodd" clip-rule="evenodd" d="M325.971 31.0322C325.706 29.8592 326.631 28.7515 327.82 28.7515C328.877 28.7515 329.736 29.5986 329.736 30.6412V34.942C330.397 34.8768 331.057 34.8116 331.784 34.8116C332.444 34.8116 333.105 34.8768 333.766 34.942V30.6412C333.766 29.5986 334.624 28.7515 335.681 28.7515C336.87 28.7515 337.795 29.8592 337.597 31.0322L336.738 35.7239C339.513 36.7665 341.428 38.5911 341.428 40.6763C341.428 43.8693 337.134 46.4758 331.85 46.4758C326.565 46.4758 322.271 43.8693 322.271 40.6763C322.271 38.5911 324.121 36.7665 326.896 35.7239L325.971 31.0322Z" fill="#D1884F"/>
<path d="M329.142 40.2202C329.142 41.0673 328.679 41.7841 328.085 41.7841C327.49 41.7841 327.028 41.0673 327.028 40.2202C327.028 39.373 327.49 38.6562 328.085 38.6562C328.679 38.6562 329.142 39.373 329.142 40.2202Z" fill="#633001"/>
<path d="M336.474 40.2202C336.474 41.0673 336.011 41.7841 335.417 41.7841C334.822 41.7841 334.36 41.0673 334.36 40.2202C334.36 39.373 334.822 38.6562 335.417 38.6562C336.011 38.6562 336.474 39.373 336.474 40.2202Z" fill="#633001"/>
<path d="M372.782 46.6782L372.782 53.6782" stroke="#BB0000" stroke-width="1.5" stroke-linecap="round" stroke-linejoin="round"/>
<path d="M376.282 50.1782L372.782 53.6782L369.282 50.1782" stroke="#BB0000" stroke-width="1.5" stroke-linecap="round" stroke-linejoin="round"/>
<path d="M387.195 45.9509V54.6782H385.873V47.272H385.822L383.734 48.6356V47.3742L385.912 45.9509H387.195ZM392.594 54.8231C391.92 54.8203 391.345 54.6427 390.868 54.2904C390.391 53.9382 390.025 53.4254 389.773 52.7521C389.52 52.0788 389.393 51.2677 389.393 50.3188C389.393 49.3728 389.52 48.5646 389.773 47.8941C390.028 47.2237 390.395 46.7123 390.872 46.36C391.352 46.0078 391.926 45.8316 392.594 45.8316C393.261 45.8316 393.834 46.0092 394.311 46.3643C394.788 46.7166 395.153 47.2279 395.406 47.8984C395.662 48.566 395.79 49.3728 395.79 50.3188C395.79 51.2706 395.663 52.0831 395.41 52.7563C395.158 53.4268 394.793 53.9396 394.315 54.2947C393.838 54.647 393.264 54.8231 392.594 54.8231ZM392.594 53.6853C393.185 53.6853 393.646 53.397 393.979 52.8203C394.314 52.2436 394.481 51.4098 394.481 50.3188C394.481 49.5944 394.405 48.9822 394.251 48.4822C394.101 47.9794 393.883 47.5987 393.599 47.3402C393.318 47.0788 392.983 46.9481 392.594 46.9481C392.006 46.9481 391.544 47.2379 391.209 47.8174C390.873 48.397 390.704 49.2308 390.702 50.3188C390.702 51.0461 390.777 51.6612 390.927 52.164C391.081 52.664 391.298 53.0433 391.579 53.3018C391.861 53.5575 392.199 53.6853 392.594 53.6853ZM397.842 54.7592C397.609 54.7592 397.408 54.6768 397.241 54.512C397.073 54.3444 396.989 54.1427 396.989 53.9069C396.989 53.674 397.073 53.4751 397.241 53.3103C397.408 53.1427 397.609 53.0589 397.842 53.0589C398.074 53.0589 398.275 53.1427 398.442 53.3103C398.61 53.4751 398.694 53.674 398.694 53.9069C398.694 54.0632 398.654 54.2066 398.574 54.3373C398.498 54.4652 398.396 54.5674 398.268 54.6441C398.14 54.7208 397.998 54.7592 397.842 54.7592ZM403.123 54.7975C402.589 54.7975 402.109 54.6953 401.683 54.4907C401.26 54.2833 400.922 53.9992 400.669 53.6384C400.416 53.2777 400.281 52.8657 400.264 52.4027H401.543C401.574 52.7777 401.74 53.0859 402.041 53.3274C402.342 53.5688 402.703 53.6896 403.123 53.6896C403.459 53.6896 403.756 53.6129 404.014 53.4595C404.275 53.3032 404.48 53.0887 404.628 52.816C404.778 52.5433 404.854 52.2322 404.854 51.8828C404.854 51.5277 404.777 51.2109 404.623 50.9325C404.47 50.6541 404.258 50.4353 403.989 50.2762C403.722 50.1171 403.415 50.0362 403.068 50.0333C402.804 50.0333 402.538 50.0788 402.271 50.1697C402.004 50.2606 401.788 50.3799 401.623 50.5277L400.418 50.3487L400.908 45.9509H405.706V47.0802H402.003L401.726 49.522H401.777C401.947 49.3572 402.173 49.2194 402.454 49.1086C402.739 48.9978 403.043 48.9424 403.366 48.9424C403.898 48.9424 404.371 49.0688 404.785 49.3217C405.203 49.5745 405.531 49.9197 405.77 50.3572C406.011 50.7919 406.131 51.2919 406.128 51.8572C406.131 52.4225 406.003 52.9268 405.744 53.37C405.489 53.8132 405.133 54.1626 404.679 54.4183C404.227 54.6711 403.709 54.7975 403.123 54.7975ZM412.24 53.0419V52.5816C412.24 52.2521 412.308 51.9509 412.444 51.6782C412.583 51.4027 412.785 51.1825 413.049 51.0177C413.316 50.8501 413.639 50.7663 414.017 50.7663C414.403 50.7663 414.727 50.8487 414.988 51.0134C415.25 51.1782 415.447 51.3984 415.581 51.674C415.717 51.9495 415.785 52.2521 415.785 52.5816V53.0419C415.785 53.3714 415.717 53.674 415.581 53.9495C415.444 54.2223 415.244 54.4424 414.98 54.61C414.718 54.7748 414.397 54.8572 414.017 54.8572C413.633 54.8572 413.309 54.7748 413.045 54.61C412.781 54.4424 412.581 54.2223 412.444 53.9495C412.308 53.674 412.24 53.3714 412.24 53.0419ZM413.233 52.5816V53.0419C413.233 53.2862 413.291 53.5078 413.407 53.7066C413.524 53.9055 413.727 54.0049 414.017 54.0049C414.304 54.0049 414.504 53.9055 414.617 53.7066C414.731 53.5078 414.788 53.2862 414.788 53.0419V52.5816C414.788 52.3373 414.733 52.1157 414.622 51.9169C414.514 51.718 414.312 51.6186 414.017 51.6186C413.733 51.6186 413.531 51.718 413.411 51.9169C413.292 52.1157 413.233 52.3373 413.233 52.5816ZM407.85 48.0475V47.5873C407.85 47.2578 407.919 46.9552 408.055 46.6796C408.194 46.4041 408.396 46.1839 408.66 46.0191C408.927 45.8544 409.25 45.772 409.627 45.772C410.014 45.772 410.338 45.8544 410.599 46.0191C410.86 46.1839 411.058 46.4041 411.191 46.6796C411.325 46.9552 411.392 47.2578 411.392 47.5873V48.0475C411.392 48.3771 411.323 48.6796 411.187 48.9552C411.054 49.2279 410.855 49.4481 410.59 49.6157C410.329 49.7805 410.008 49.8629 409.627 49.8629C409.241 49.8629 408.916 49.7805 408.652 49.6157C408.39 49.4481 408.191 49.2279 408.055 48.9552C407.919 48.6796 407.85 48.3771 407.85 48.0475ZM408.848 47.5873V48.0475C408.848 48.2919 408.904 48.5134 409.018 48.7123C409.134 48.9112 409.338 49.0106 409.627 49.0106C409.911 49.0106 410.11 48.9112 410.224 48.7123C410.34 48.5134 410.399 48.2919 410.399 48.0475V47.5873C410.399 47.343 410.343 47.1214 410.233 46.9225C410.122 46.7237 409.92 46.6242 409.627 46.6242C409.343 46.6242 409.142 46.7237 409.022 46.9225C408.906 47.1214 408.848 47.343 408.848 47.5873ZM408.255 54.6782L414.255 45.9509H415.274L409.274 54.6782H408.255Z" fill="#BB0000"/>
<path opacity="0.23" d="M382.264 27.4305C376.933 27.4305 378.932 35.0131 367.51 35.0131H414.15C402.252 35.0131 406.06 20.3218 397.969 20.3218C391.877 20.3218 395.589 27.4305 386.547 27.4305H382.264Z" fill="url(#paint0_linear_59_200)"/>
<path d="M367.51 35.0131C378.932 35.0131 376.933 27.4305 382.264 27.4305C387.594 27.4305 384.167 27.4305 386.547 27.4305C395.589 27.4305 391.877 20.3218 397.969 20.3218C406.06 20.3218 402.252 35.0131 414.15 35.0131" stroke="#BB0000" stroke-width="1.2" stroke-linecap="round"/>
<rect x="366.083" y="17.4783" width="36.1697" height="18.9565" fill="url(#paint1_linear_59_200)"/>
<defs>
<filter id="filter0_d_59_200" x="0" y="0" width="149.642" height="133" filterUnits="userSpaceOnUse" color-interpolation-filters="sRGB">
<feFlood flood-opacity="0" result="BackgroundImageFix"/>
<feColorMatrix in="SourceAlpha" type="matrix" values="0 0 0 0 0 0 0 0 0 0 0 0 0 0 0 0 0 0 127 0" result="hardAlpha"/>
<feOffset dy="4"/>
<feGaussianBlur stdDeviation="6"/>
<feComposite in2="hardAlpha" operator="out"/>
<feColorMatrix type="matrix" values="0 0 0 0 0.141176 0 0 0 0 0.129412 0 0 0 0 0.196078 0 0 0 0.12 0"/>
<feBlend mode="normal" in2="BackgroundImageFix" result="effect1_dropShadow_59_200"/>
<feBlend mode="normal" in="SourceGraphic" in2="effect1_dropShadow_59_200" result="shape"/>
</filter>
<filter id="filter1_d_59_200" x="144.679" y="0" width="149.642" height="133" filterUnits="userSpaceOnUse" color-interpolation-filters="sRGB">
<feFlood flood-opacity="0" result="BackgroundImageFix"/>
<feColorMatrix in="SourceAlpha" type="matrix" values="0 0 0 0 0 0 0 0 0 0 0 0 0 0 0 0 0 0 127 0" result="hardAlpha"/>
<feOffset dy="4"/>
<feGaussianBlur stdDeviation="6"/>
<feComposite in2="hardAlpha" operator="out"/>
<feColorMatrix type="matrix" values="0 0 0 0 0.141176 0 0 0 0 0.129412 0 0 0 0 0.196078 0 0 0 0.12 0"/>
<feBlend mode="normal" in2="BackgroundImageFix" result="effect1_dropShadow_59_200"/>
<feBlend mode="normal" in="SourceGraphic" in2="effect1_dropShadow_59_200" result="shape"/>
</filter>
<filter id="filter2_d_59_200" x="289.358" y="0" width="149.642" height="133" filterUnits="userSpaceOnUse" color-interpolation-filters="sRGB">
<feFlood flood-opacity="0" result="BackgroundImageFix"/>
<feColorMatrix in="SourceAlpha" type="matrix" values="0 0 0 0 0 0 0 0 0 0 0 0 0 0 0 0 0 0 127 0" result="hardAlpha"/>
<feOffset dy="4"/>
<feGaussianBlur stdDeviation="6"/>
<feComposite in2="hardAlpha" operator="out"/>
<feColorMatrix type="matrix" values="0 0 0 0 0.141176 0 0 0 0 0.129412 0 0 0 0 0.196078 0 0 0 0.12 0"/>
<feBlend mode="normal" in2="BackgroundImageFix" result="effect1_dropShadow_59_200"/>
<feBlend mode="normal" in="SourceGraphic" in2="effect1_dropShadow_59_200" result="shape"/>
</filter>
<linearGradient id="paint0_linear_59_200" x1="390.83" y1="21.2696" x2="390.83" y2="35.0131" gradientUnits="userSpaceOnUse">
<stop stop-color="#BB0000"/>
<stop offset="1" stop-color="#BB0000" stop-opacity="0"/>
</linearGradient>
<linearGradient id="paint1_linear_59_200" x1="371.794" y1="27.4554" x2="402.252" y2="27.4554" gradientUnits="userSpaceOnUse">
<stop stop-color="white"/>
<stop offset="1" stop-color="white" stop-opacity="0"/>
</linearGradient>
</defs>
</svg>
