<svg width="70" height="70" viewBox="0 0 70 70" fill="none" xmlns="http://www.w3.org/2000/svg">
<circle cx="35" cy="35" r="34" transform="rotate(180 35 35)" stroke="white" stroke-width="2"/>
<path d="M53 37C54.1046 37 55 36.1046 55 35C55 33.8954 54.1046 33 53 33V37ZM16.5858 33.5858C15.8047 34.3668 15.8047 35.6332 16.5858 36.4142L29.3137 49.1421C30.0948 49.9232 31.3611 49.9232 32.1421 49.1421C32.9232 48.3611 32.9232 47.0948 32.1421 46.3137L20.8284 35L32.1421 23.6863C32.9232 22.9052 32.9232 21.6389 32.1421 20.8579C31.3611 20.0768 30.0948 20.0768 29.3137 20.8579L16.5858 33.5858ZM53 33H18V37H53V33Z" fill="white"/>
</svg>
