<svg width="70" height="70" viewBox="0 0 70 70" fill="none" xmlns="http://www.w3.org/2000/svg">
<circle cx="35" cy="35" r="34" stroke="#E1040F" stroke-width="2"/>
<path d="M17 33C15.8954 33 15 33.8954 15 35C15 36.1046 15.8954 37 17 37L17 33ZM53.4142 36.4142C54.1953 35.6332 54.1953 34.3668 53.4142 33.5858L40.6863 20.8579C39.9052 20.0768 38.6389 20.0768 37.8579 20.8579C37.0768 21.6389 37.0768 22.9052 37.8579 23.6863L49.1716 35L37.8579 46.3137C37.0768 47.0948 37.0768 48.3611 37.8579 49.1421C38.6389 49.9232 39.9052 49.9232 40.6863 49.1421L53.4142 36.4142ZM17 37L52 37L52 33L17 33L17 37Z" fill="#E1040F"/>
</svg>
