<svg width="38" height="38" viewBox="0 0 38 38" fill="none" xmlns="http://www.w3.org/2000/svg">
<path d="M31.5912 12.54C31.6105 12.8192 31.6105 13.0983 31.6105 13.3801C31.6105 21.9647 25.0752 31.8655 13.1251 31.8655V31.8603C9.59504 31.8655 6.13827 30.8543 3.1665 28.9477C3.67981 29.0095 4.19569 29.0404 4.71285 29.0416C7.6383 29.0442 10.4801 28.0626 12.7816 26.2551C10.0016 26.2024 7.56369 24.3897 6.71204 21.7435C7.6859 21.9313 8.68936 21.8927 9.64521 21.6315C6.61427 21.0192 4.43369 18.3562 4.43369 15.2635C4.43369 15.2352 4.43369 15.2081 4.43369 15.1811C5.33679 15.6841 6.34797 15.9633 7.38229 15.9942C4.5276 14.0863 3.64765 10.2887 5.37153 7.31946C8.67006 11.3783 13.5368 13.8458 18.7612 14.1069C18.2376 11.8504 18.9529 9.48589 20.6407 7.89966C23.2574 5.43992 27.3729 5.56599 29.8326 8.1814C31.2876 7.89452 32.6822 7.36063 33.9584 6.60418C33.4734 8.10807 32.4583 9.38555 31.1024 10.1973C32.3901 10.0455 33.6483 9.70073 34.8332 9.17456C33.9609 10.4816 32.8623 11.6202 31.5912 12.54Z" fill="white"/>
</svg>
